# xmcd
#
# Track frame offsets:
#	150
#	29715
#	77934
#	118434
#	144217
#	168754
#	194663
#	215461
#	239169
#	261680
#
# Disc length: 3914 seconds
#
# Revision: 0
# Processed by: cddbd v1.5.2PL0 Copyright (c) Steve Scherf et al.
# Submitted via: dBpowerAMP V4.0
#
DISCID=a20f480a
DTITLE=Twelve Bar Blues Band - E-mail From Heaven
DYEAR=2008
DGENRE=Blues
TTITLE0=World In Trouble
TTITLE1=Twelve Bar Blues
TTITLE2=You’re Gonna Need My Help Someday 
TTITLE3=Email From Heaven
TTITLE4=I’m Gonna Get you
TTITLE5=Everybody Makes Mistakes
TTITLE6=John Lee Boogie
TTITLE7=Help Me
TTITLE8=hake Your Moneymaker
TTITLE9=I Can Make Everything All Right
EXTD=
EXTT0=
EXTT1=
EXTT2=
EXTT3=
EXTT4=
EXTT5=
EXTT6=
EXTT7=
EXTT8=
EXTT9=
PLAYORDER=
